<svg xmlns="http://www.w3.org/2000/svg" width="76.006" height="86.865" viewBox="0 0 76.006 86.865">
  <defs>
    <style>
      .cls-1 {
        fill: #ce289c;
      }
    </style>
  </defs>
  <path id="book-solid" class="cls-1" d="M76.006,61.077v-57A4.062,4.062,0,0,0,71.935,0H16.287A16.291,16.291,0,0,0,0,16.287v54.29A16.291,16.291,0,0,0,16.287,86.865H71.935a4.062,4.062,0,0,0,4.072-4.072V80.078a4.1,4.1,0,0,0-1.51-3.173,37.835,37.835,0,0,1,0-12.673,4.043,4.043,0,0,0,1.51-3.156ZM21.716,22.734a1.021,1.021,0,0,1,1.018-1.018H58.7a1.021,1.021,0,0,1,1.018,1.018v3.393A1.021,1.021,0,0,1,58.7,27.145H22.734a1.021,1.021,0,0,1-1.018-1.018Zm0,10.858a1.021,1.021,0,0,1,1.018-1.018H58.7a1.021,1.021,0,0,1,1.018,1.018v3.393A1.021,1.021,0,0,1,58.7,38H22.734a1.021,1.021,0,0,1-1.018-1.018ZM64.707,76.006H16.287a5.429,5.429,0,1,1,0-10.858h48.42A61.078,61.078,0,0,0,64.707,76.006Z"/>
</svg>
