<svg xmlns="http://www.w3.org/2000/svg" width="100.954" height="98.828" viewBox="0 0 100.954 98.828">
  <g id="Layer_2" data-name="Layer 2" transform="translate(0.018)">
    <g id="Layer_1" data-name="Layer 1" transform="translate(-0.018 0)">
      <path id="Path_1" data-name="Path 1" d="M50.7,0A50.663,50.663,0,0,0,34.684,98.745c2.55.467,3.452-1.12,3.452-2.457V87.673C23.986,90.752,21,80.862,21,80.862a13.56,13.56,0,0,0-5.629-7.433c-4.572-3.11.373-3.11.373-3.11a10.668,10.668,0,0,1,7.744,5.225,10.823,10.823,0,0,0,14.742,4.23,10.761,10.761,0,0,1,3.11-6.78c-11.258-1.275-23.077-5.629-23.077-24.881a19.593,19.593,0,0,1,5.194-13.591,18.474,18.474,0,0,1,.5-13.4s4.261-1.368,13.933,5.194a47.926,47.926,0,0,1,25.378,0c9.672-6.562,13.9-5.194,13.9-5.194a18.38,18.38,0,0,1,.622,13.311A19.593,19.593,0,0,1,82.984,48.02c0,19.469-11.849,23.73-23.139,24.881A11.974,11.974,0,0,1,63.3,82.23c0,6.78,0,12.254,0,13.9s.9,2.923,3.483,2.426A50.663,50.663,0,0,0,50.7,0Z" transform="translate(0.018 0)" fill="white" fill-rule="evenodd"/>
    </g>
  </g>
</svg>
