<svg id="icons8-javascript" xmlns="http://www.w3.org/2000/svg" width="98.701" height="98.701" viewBox="0 0 98.701 98.701">
  <defs>
    <style>
      .cls-1 {
        fill: #ffd600;
      }

      .cls-2 {
        fill: #000001;
      }
    </style>
  </defs>
  <path id="Path_9" data-name="Path 9" class="cls-1" d="M6,104.7V6h98.7v98.7Z" transform="translate(-6 -6)"/>
  <path id="Path_10" data-name="Path 10" class="cls-2" d="M54.279,52.013c1.9,3.082,3.959,6.034,8.326,6.034,3.668,0,5.593-1.823,5.593-4.346,0-3.019-1.99-4.091-6.026-5.848l-2.213-.943c-6.385-2.709-10.632-6.1-10.632-13.273C49.327,27.031,54.386,22,62.29,22c5.629,0,9.673,1.949,12.59,7.054l-6.893,4.406c-1.516-2.709-3.156-3.775-5.7-3.775-2.594,0-4.236,1.637-4.236,3.775,0,2.643,1.645,3.712,5.442,5.349l2.213.943c7.526,3.205,11.77,6.479,11.77,13.837,0,7.929-6.262,12.275-14.668,12.275-8.222,0-12.891-4.126-15.491-9.234Zm-31.765.225c1.387,2.484,3.5,4.395,6.528,4.395,2.9,0,4.57-1.146,4.57-5.6V22H42.75V52.435c0,9.231-5.355,13.432-13.174,13.432a16.035,16.035,0,0,1-14.243-9.234Z" transform="translate(10.255 21.867)"/>
</svg>
