<svg id="icons8-jquery" fill="white" xmlns="http://www.w3.org/2000/svg" width="91.858" height="91.875" viewBox="0 0 91.858 91.875">
  <path id="Path_11" data-name="Path 11" d="M53.114,89.435h-.006a62.52,62.52,0,0,1-11.267-1.08,13.3,13.3,0,0,1-1.56-.424l-.405-.129c-.023,0-.15-.042-.276-.081-.731-.228-1.3-.416-1.883-.616l-.3-.111c-.436-.159-.961-.355-1.466-.551-.025-.006-.142-.052-.257-.1-.706-.282-1.255-.512-1.8-.75,0,0-.2-.092-.2-.094-.6-.269-1.082-.491-1.551-.727-.046-.021-.378-.186-.422-.211-.47-.226-.779-.393-1.071-.555-.2-.1-.438-.217-.679-.351-.393-.211-.816-.453-1.232-.7l-.361-.2c-.666-.4-1.215-.739-1.764-1.094l-1.5-1c-.042-.027-.1-.073-.167-.123-.138-.092-.269-.188-.4-.286-.393-.282-.737-.528-1.069-.779l-2-1.574c-.388-.322-.777-.654-1.163-.99-.023-.023-.311-.274-.334-.3-.307-.259-.708-.637-1.107-1.013l-.322-.3-.157-.148c-.324-.3-.637-.628-.948-.948l-.367-.361c-.4-.416-.773-.816-1.138-1.219-.061-.058-.117-.123-.167-.182-.388-.432-.77-.871-1.132-1.311l-.169-.2c-.008-.01-.146-.171-.155-.184l-1.19-1.5c-.269-.342-.572-.748-.873-1.165l-.129-.184c-.013-.019-.027-.035-.04-.052h0c-.363-.489-.693-.988-1.021-1.493-.061-.084-.157-.23-.251-.382l-.33-.524c-.14-.217-.278-.436-.407-.654-.04-.05-.136-.213-.232-.372l-.672-1.146c-.173-.311-.274-.5-.372-.7a2.357,2.357,0,0,1-.2-.37,4.426,4.426,0,0,1-.276-.535l-.073-.134c-.125-.236-.248-.474-.359-.72-5.857-11.8-7.507-31.1,1.021-43.524a46.3,46.3,0,0,1,7.3-8.757,2.088,2.088,0,0,1,3.074,2.8c-6.327,8.551-4.207,31.916,3.915,43.108.3.418.6.823.91,1.224.134.167.255.322.361.478l.879,1.075c.48.57.839.99,1.213,1.4.407.449.762.827,1.123,1.2l1.476,1.466c.507.476.925.864,1.345,1.244a1.843,1.843,0,0,1,.148.119c.372.326.737.643,1.123.956l.453.372c.24.2.5.4.764.606.292.219.474.359.647.5.288.211.635.464.986.712l.207.148c.514.357.864.6,1.219.825.2.14.309.217.428.29.528.34,1.05.658,1.568.971a5.592,5.592,0,0,1,.524.313l1.7.915c.376.2.668.357.965.5.031.013.37.177.4.192.428.211.852.407,1.29.614l.284.119c.491.217.994.434,1.5.637l.457.177c.4.157.856.334,1.318.493l.238.086c.518.18,1.046.357,1.581.52l.777.238c.407.125.808.246,1.215.34,16.569,3.809,31.043.052,38.725-10.05a2.088,2.088,0,0,1,3.614,2.007C92.552,65.365,83.028,89.432,53.114,89.435Z" transform="translate(-3.005 2.441)"/>
  <path id="Path_12" data-name="Path 12" d="M51.7,63.467a49.931,49.931,0,0,1-8.233-.72,9.334,9.334,0,0,1-1.568-.428l-.912-.3c-.4-.132-.793-.271-1.184-.411-.019-.006-.226-.084-.244-.092l-.24-.088c-.537-.207-.977-.393-1.412-.58l-.664-.29c-.428-.2-.858-.4-1.282-.61-.031-.015-.177-.084-.209-.1l-.637-.332c-.286-.152-.405-.217-.524-.29-.259-.127-.654-.355-1.032-.583-.58-.336-.988-.589-1.4-.862l-.223-.148-.2-.134c-.2-.132-.393-.257-.58-.39a2.088,2.088,0,0,1-.182-.119c-.558-.4-1.107-.81-1.643-1.236l-.188-.144c-.691-.543-1.215-.981-1.727-1.437a1.691,1.691,0,0,1-.127-.117s0,0,0,0c-.455-.407-.9-.827-1.332-1.251l-.169-.169-.2-.209c-.424-.426-.854-.867-1.255-1.322a19.418,19.418,0,0,1-2.871-3.566l-.282-.411a36.164,36.164,0,0,1-2.641-4.477c-5.049-9.985-4.623-21.816,1.088-30.127l.063-.086A49.012,49.012,0,0,1,26.2,5.469a2.089,2.089,0,0,1,3.128,2.664c-3.9,6.738-5.191,14.134-3.452,19.786A33.542,33.542,0,0,0,37.1,44.119l.23.188c.587.455,1.082.833,1.589,1.19.221.15.457.3.7.464.019.013.182.123.2.134l.194.127c.282.19.585.374.885.555l.2.123.2.115c.363.217.61.363.875.5l1.188.62c.43.209.917.441,1.407.656l.278.119c.407.184.739.313,1.075.447l.583.221c.407.152.766.278,1.125.393.173.061.267.1.372.125.626.2,1.134.353,1.654.487,11.248,2.961,22.29-.643,28.132-9.177a2.088,2.088,0,0,1,3.727,1.764c-.058.2-6.051,19.78-29.1,20.286C52.315,63.463,52.008,63.467,51.7,63.467Z" transform="translate(10.056 -0.825)"/>
  <path id="Path_13" data-name="Path 13" d="M49.681,40.585c-.255,0-.514,0-.775-.01a29.531,29.531,0,0,1-4.786-.566,8.459,8.459,0,0,1-.992-.28l-.234-.077c-.042-.013-.349-.111-.388-.125-.359-.127-.568-.2-.777-.282A25.033,25.033,0,0,1,27.61,25.716,20.525,20.525,0,0,1,26,17.594,18.724,18.724,0,0,1,29.128,7.362c.021-.033.044-.065.069-.1.39-.52,2.433-3.159,4.226-4.047a2.088,2.088,0,0,1,2.7,2.98c-3.723,5.93-1.228,16.2,5.132,21.133a21.187,21.187,0,0,0,3.533,2.209c.639.307,1.318.6,2,.846a16.225,16.225,0,0,0,1.647.526c7.233,1.8,12.451.43,15.508-4.061,0,0,0,0,0,0A2.089,2.089,0,0,1,67.4,29.2s-.006.01-.01.015c-.09.132-.2.342-.345.608C65.567,32.513,61.132,40.585,49.681,40.585Z" transform="translate(22.015 -3)"/>
</svg>
