<svg xmlns="http://www.w3.org/2000/svg" width="87.298" height="87.299" viewBox="0 0 87.298 87.299">
  <defs>
    <style>
      .cls-1 {
        fill: #ce289c;
      }
    </style>
  </defs>
  <path id="palette-solid" class="cls-1" d="M34.845.823A43.419,43.419,0,0,0,.9,34.652C-5.412,66.537,23.353,90.306,45.024,86.947c7.025-1.091,10.469-9.31,7.247-15.636A11.537,11.537,0,0,1,62.655,54.534H76.244A11.156,11.156,0,0,0,87.31,43.4,43.683,43.683,0,0,0,34.845.823ZM16.379,54.533a5.456,5.456,0,1,1,5.456-5.456A5.45,5.45,0,0,1,16.379,54.533Zm5.456-21.825a5.456,5.456,0,1,1,5.456-5.456A5.45,5.45,0,0,1,21.835,32.708ZM43.66,21.8a5.456,5.456,0,1,1,5.456-5.456A5.45,5.45,0,0,1,43.66,21.8ZM65.485,32.708a5.456,5.456,0,1,1,5.456-5.456A5.45,5.45,0,0,1,65.485,32.708Z" transform="translate(-0.012 0.035)"/>
</svg>
