<svg xmlns="http://www.w3.org/2000/svg" width="131.847" height="98.828" viewBox="0 0 131.847 98.828"><defs><style>.a{fill:#f06292;}</style></defs><path class="a" d="M115.468,63.8a27.065,27.065,0,0,0-11.944,2.781c-1.223-2.442-2.463-4.591-2.67-6.188a16.43,16.43,0,0,1-.231-5.2,45.411,45.411,0,0,1,1.561-5.6c-.018-.237-.288-1.366-2.946-1.387s-4.932.512-5.2,1.214a26.237,26.237,0,0,0-1.1,3.928c-.464,2.409-5.307,11.006-8.055,15.5a16.139,16.139,0,0,1-1.822-4.525,16.431,16.431,0,0,1-.231-5.2,45.409,45.409,0,0,1,1.561-5.6c-.018-.237-.288-1.366-2.946-1.387s-4.932.512-5.2,1.214-.554,2.34-1.1,3.928S68.177,73.2,66.49,76.918c-.86,1.894-1.606,3.416-2.133,4.453a.009.009,0,0,1,0-.006s-.033.069-.087.186c-.452.884-.719,1.372-.719,1.372l.009.018c-.36.65-.743,1.253-.932,1.253-.132,0-.4-1.729.057-4.1.959-4.974,3.257-12.729,3.236-13-.012-.138.428-1.489-1.5-2.2a2.4,2.4,0,0,0-2.715.461c-.165,0-.288.4-.288.4s2.089-8.723-3.985-8.723c-3.8,0-9.061,4.156-11.653,7.923-1.636.893-5.139,2.8-8.852,4.845-1.426.785-2.883,1.585-4.264,2.346-.093-.1-.189-.207-.285-.312-7.368-7.86-20.984-13.418-20.409-23.987.21-3.841,1.546-13.958,26.168-26.225C58.3,11.58,74.452,14.345,77.242,20.473c3.985,8.759-8.63,25.033-29.575,27.382-7.98.9-12.184-2.2-13.229-3.35-1.1-1.214-1.265-1.268-1.675-1.04-.668.372-.246,1.441,0,2.08.626,1.627,3.191,4.513,7.566,5.951,3.85,1.265,13.22,1.957,24.55-2.427,12.693-4.908,22.6-18.566,19.69-29.98C81.608,7.481,62.358,3.663,44.14,10.135c-10.856,3.853-22.593,9.9-31.034,17.793C3.07,37.313,1.47,45.485,2.129,48.9,4.472,61.027,21.19,68.926,27.884,74.778l-.923.509c-3.356,1.66-16.1,8.33-19.288,15.375-3.617,7.992.575,13.727,3.35,14.5,8.6,2.391,17.418-1.912,22.162-8.983S37.347,79.9,35.171,75.7c-.027-.051-.057-.1-.084-.156.866-.512,1.75-1.034,2.625-1.549,1.708-1,3.386-1.939,4.839-2.73a32.433,32.433,0,0,0-1.72,8.768c-.366,4.537,1.5,10.4,3.928,12.708a4.31,4.31,0,0,0,3.176,1.04c2.832,0,4.123-2.355,5.546-5.142,1.744-3.416,3.293-7.4,3.293-7.4S54.834,91.99,60.126,91.99c1.93,0,3.868-2.5,4.734-3.776a.126.126,0,0,1,0,.021l.15-.249c.2-.306.315-.5.315-.5s0-.021.009-.057c.776-1.345,2.5-4.414,5.073-9.475,3.332-6.538,6.526-14.731,6.526-14.731a43.757,43.757,0,0,0,1.271,5.316,49.564,49.564,0,0,0,2.751,6.17c-.773,1.073-1.247,1.687-1.247,1.687a.244.244,0,0,0,.012.033c-.617.821-1.309,1.7-2.035,2.568-2.631,3.131-5.762,6.709-6.182,7.74a2.113,2.113,0,0,0,.578,2.832,5.194,5.194,0,0,0,3.236.521,14.74,14.74,0,0,0,4.845-1.1,16.261,16.261,0,0,0,4.165-2.19,9.266,9.266,0,0,0,3.985-8.2A16.619,16.619,0,0,0,86.8,72.8c.234-.336.467-.677.7-1.019A110.251,110.251,0,0,0,94.729,59.3,43.756,43.756,0,0,0,96,64.617a36.84,36.84,0,0,0,2.34,5.3A22.672,22.672,0,0,0,91.322,79c-1.522,4.381-.33,6.364,1.906,6.817a6.9,6.9,0,0,0,3.521-.716,16.293,16.293,0,0,0,4.453-2.289c2.58-1.9,5.061-4.552,4.911-8.144A15.276,15.276,0,0,0,105,69.849a25.181,25.181,0,0,1,12.783-1.477c11.468,1.339,13.715,8.5,13.286,11.494a7.565,7.565,0,0,1-3.641,5.142c-.8.5-1.049.671-.983,1.04.1.536.47.518,1.157.4a8.941,8.941,0,0,0,6.239-7.968C134.112,71.452,127.385,63.739,115.468,63.8ZM27.081,93.6c-3.8,4.144-9.1,5.708-11.381,4.39-2.457-1.423-1.483-7.524,3.176-11.923A60.288,60.288,0,0,1,27.818,79.4l2.355-1.414.258-.144,0-.006c.192-.114.387-.231.587-.354A16.462,16.462,0,0,1,27.081,93.6ZM54.753,74.79c-1.321,3.224-4.09,11.476-5.777,11.033-1.447-.381-2.328-6.652-.288-12.825a28.55,28.55,0,0,1,4.507-8.261c2.074-2.319,4.357-3.077,4.911-2.136C58.81,63.8,55.583,72.768,54.753,74.79ZM77.613,85.7c-.56.294-1.076.476-1.312.336-.177-.1.231-.491.231-.491s2.859-3.077,3.985-4.477c.656-.815,1.414-1.783,2.241-2.862.006.108.009.216.009.321C82.761,82.21,79.2,84.7,77.613,85.7Zm17.61-4.015c-.42-.3-.348-1.259,1.028-4.258a16.1,16.1,0,0,1,3.913-5.052,7.305,7.305,0,0,1,.4,2.22C100.533,79.231,97.225,80.963,95.224,81.682Z" transform="translate(-2 -6.999)"/></svg>