<svg xmlns="http://www.w3.org/2000/svg" width="124.098" height="86.868" viewBox="0 0 124.098 86.868">
  <defs>
    <style>
      .cls-1 {
        fill: #ce289c;
      }
    </style>
  </defs>
  <path id="users-solid" class="cls-1" d="M18.615,69.229A12.41,12.41,0,1,0,6.2,56.82,12.421,12.421,0,0,0,18.615,69.229Zm86.868,0a12.41,12.41,0,1,0-12.41-12.41A12.421,12.421,0,0,0,105.483,69.229Zm6.2,6.2H99.278a12.373,12.373,0,0,0-8.745,3.607A28.363,28.363,0,0,1,105.1,100.254h12.8a6.2,6.2,0,0,0,6.2-6.2v-6.2A12.421,12.421,0,0,0,111.688,75.434Zm-49.639,0A21.717,21.717,0,1,0,40.332,53.717,21.706,21.706,0,0,0,62.049,75.434Zm14.892,6.2H75.331a29.984,29.984,0,0,1-26.565,0H47.157A22.343,22.343,0,0,0,24.82,103.977v5.584a9.31,9.31,0,0,0,9.307,9.307H89.971a9.31,9.31,0,0,0,9.307-9.307v-5.584A22.343,22.343,0,0,0,76.941,81.639Zm-43.376-2.6a12.373,12.373,0,0,0-8.745-3.607H12.41A12.421,12.421,0,0,0,0,87.844v6.2a6.2,6.2,0,0,0,6.2,6.2H18.983A28.434,28.434,0,0,1,33.565,79.041Z" transform="translate(0 -32)"/>
</svg>
